<svg width="54" height="50" viewBox="0 0 54 50" fill="none" xmlns="http://www.w3.org/2000/svg">
<path d="M53.8148 11.8519C53.6293 11.212 53.1765 10.6664 52.557 10.3357C51.9371 10.0033 51.2001 9.91339 50.5087 10.0855C49.8181 10.258 49.2298 10.6774 48.8731 11.2519L48.4239 11.9768C47.997 11.7494 47.4517 11.8833 47.202 12.2771L44.9198 15.8845L44.138 15.4679C43.931 15.3568 43.6844 15.3267 43.4536 15.3845C43.2224 15.4426 43.0259 15.5834 42.907 15.7762C42.6635 16.1745 42.8118 16.6806 43.2395 16.9093L44.0213 17.3259L36.3841 29.5988L34.4972 34.2733L33.5987 35.831C33.0727 36.6797 33.1288 37.7346 33.7426 38.5307L31.721 40.8302L31.155 39.5141C30.8997 38.9274 30.3087 38.5255 29.6292 38.4762C28.9492 38.4266 28.2977 38.7382 27.9471 39.2805L27.6238 39.7887L27.3184 36.4559C27.2482 35.6675 26.5897 35.0336 25.743 34.9384C24.8958 34.8436 24.0939 35.3143 23.8232 36.0645L21.6129 42.2134C21.4585 42.6483 21.7112 43.117 22.1789 43.2634C22.2666 43.3013 22.3609 43.324 22.4574 43.3297C22.8435 43.331 23.1875 43.1027 23.3112 42.7634L25.5122 36.6146L25.8268 39.997C25.8917 40.7187 26.4511 41.3188 27.2118 41.4823C27.9726 41.6459 28.7596 41.335 29.1602 40.7138L29.4927 40.2053L30.0499 41.5136C30.2864 42.0649 30.8212 42.4583 31.4542 42.5458C32.0873 42.6332 32.7226 42.4018 33.1227 41.9384L35.2162 39.4807C35.4479 39.5368 35.6866 39.5649 35.9261 39.5641C36.8891 39.571 37.7832 39.1007 38.271 38.3306L39.1695 36.9392L42.5929 33.0816L50.3108 20.6586L51.0926 21.0752C51.301 21.1859 51.4528 21.3686 51.5146 21.5838C51.5769 21.7974 51.5445 22.0252 51.4251 22.2168L47.8312 27.991C47.6956 28.1805 47.6495 28.4133 47.7039 28.6354C47.7583 28.8571 47.9079 29.0487 48.1185 29.1655C48.3256 29.277 48.5722 29.3071 48.8029 29.2493C49.0341 29.1911 49.2307 29.0504 49.3496 28.8575L52.9435 23.0833C53.302 22.5085 53.3989 21.825 53.2129 21.1839C53.0269 20.5435 52.5746 19.9979 51.9551 19.6672L51.1733 19.2506L53.4196 15.6428C53.6648 15.247 53.5205 14.7417 53.0962 14.5098L53.5455 13.7848C53.9136 13.201 54.0109 12.5037 53.8148 11.8519V11.8519ZM50.4275 12.0851C50.5464 11.8922 50.7438 11.751 50.9759 11.6937C51.2067 11.6408 51.4506 11.6705 51.6585 11.7771C51.8669 11.8873 52.0187 12.0704 52.081 12.2852C52.1381 12.4992 52.106 12.7254 51.9911 12.9182L51.5418 13.6432L49.9782 12.81L50.4275 12.0851ZM38.1811 35.3481L37.7319 35.1064L36.4021 34.3896L37.6779 31.2236L40.5081 32.7399L38.1811 35.3481ZM35.4856 37.7557C35.1061 37.5104 34.9894 37.0385 35.2162 36.6642L35.6655 35.9396L37.2287 36.7728L36.7794 37.4893C36.6535 37.6919 36.442 37.8359 36.1959 37.8867C35.9498 37.9372 35.6923 37.89 35.4856 37.7557ZM41.5325 31.3738L38.4237 29.7074L45.6117 18.1591L48.7204 19.8254L41.5325 31.3738ZM49.6189 18.384L46.5102 16.7177L48.3072 13.8348L51.4159 15.5012L49.6189 18.384Z" fill="#FFBB01"/>
<path d="M14.1781 37.3436L10.9978 40.285L9.09291 38.5186C8.74237 38.1955 8.17643 38.1955 7.82589 38.5186C7.65567 38.6752 7.56003 38.888 7.56003 39.1101C7.56003 39.3322 7.65567 39.5454 7.82589 39.7016L9.73081 41.4681C10.0677 41.7781 10.5231 41.9518 10.9978 41.9514C11.4751 41.9538 11.9345 41.7801 12.2736 41.4681L15.4451 38.5186C15.7505 38.1878 15.7298 37.6951 15.3982 37.3876C15.0661 37.0796 14.5348 37.0605 14.1781 37.3436Z" fill="#FFBB01"/>
<path d="M3.59406 39.585C3.59406 43.4966 7.01343 46.6671 11.2313 46.6671C15.4491 46.6671 18.8685 43.4966 18.8685 39.585C18.8685 39.1248 18.4662 38.7518 17.97 38.7518C17.4738 38.7518 17.0715 39.1248 17.0715 39.585C17.0715 42.576 14.4567 45.0007 11.2313 45.0007C8.00581 45.0007 5.39105 42.576 5.39105 39.585C5.39105 36.5939 8.00581 34.1692 11.2313 34.1692C12.4957 34.166 13.7263 34.5463 14.7353 35.2526C15.1324 35.5288 15.6957 35.454 15.9931 35.0858C16.291 34.7176 16.2107 34.1957 15.8137 33.9194C13.4994 32.31 10.403 32.0512 7.81584 33.2506C5.22828 34.4503 3.59406 36.9027 3.59406 39.585Z" fill="#FFBB01"/>
<path d="M32.3458 6.67383C32.842 6.67383 33.2443 6.30117 33.2443 5.84064C33.2443 5.38051 32.842 5.00745 32.3458 5.00745H8.98489C8.4887 5.00745 8.0864 5.38051 8.0864 5.84064V9.1734C8.0864 9.63394 8.4887 10.0066 8.98489 10.0066H32.3458C32.842 10.0066 33.2443 9.63394 33.2443 9.1734C33.2443 8.71328 32.842 8.34021 32.3458 8.34021H9.88339V6.67383H32.3458Z" fill="#FFBB01"/>
<path d="M11.6804 11.673C11.1843 11.673 10.782 12.0461 10.782 12.5062C10.782 12.9668 11.1843 13.3394 11.6804 13.3394H29.6504C30.1466 13.3394 30.5489 12.9668 30.5489 12.5062C30.5489 12.0461 30.1466 11.673 29.6504 11.673H11.6804Z" fill="#FFBB01"/>
<path d="M35.0414 17.5053H15.2745C14.7783 17.5053 14.376 17.8784 14.376 18.3385C14.376 18.799 14.7783 19.1717 15.2745 19.1717H35.0414C35.5376 19.1717 35.9399 18.799 35.9399 18.3385C35.9399 17.8784 35.5376 17.5053 35.0414 17.5053Z" fill="#FFBB01"/>
<path d="M26.0564 23.3377C26.0564 22.8776 25.6541 22.5045 25.1579 22.5045H7.18795C6.69176 22.5045 6.28946 22.8776 6.28946 23.3377C6.28946 23.7982 6.69176 24.1709 7.18795 24.1709H25.1579C25.6541 24.1709 26.0564 23.7982 26.0564 23.3377Z" fill="#FFBB01"/>
<path d="M35.0413 22.5045H28.7518C28.2556 22.5045 27.8533 22.8776 27.8533 23.3377C27.8533 23.7982 28.2556 24.1709 28.7518 24.1709H35.0413C35.5375 24.1709 35.9398 23.7982 35.9398 23.3377C35.9398 22.8776 35.5375 22.5045 35.0413 22.5045Z" fill="#FFBB01"/>
<path d="M16.1729 28.3368C16.6691 28.3368 17.0714 27.9642 17.0714 27.5037C17.0714 27.0435 16.6691 26.6705 16.1729 26.6705H7.18795C6.69176 26.6705 6.28946 27.0435 6.28946 27.5037C6.28946 27.9642 6.69176 28.3368 7.18795 28.3368H16.1729Z" fill="#FFBB01"/>
<path d="M19.7668 28.3368H26.0563C26.5525 28.3368 26.9548 27.9642 26.9548 27.5037C26.9548 27.0435 26.5525 26.6705 26.0563 26.6705H19.7668C19.2706 26.6705 18.8683 27.0435 18.8683 27.5037C18.8683 27.9642 19.2706 28.3368 19.7668 28.3368Z" fill="#FFBB01"/>
<path d="M40.4323 38.3352C39.9361 38.3352 39.5338 38.7082 39.5338 39.1684V47.5003C39.5338 47.9608 39.1315 48.3335 38.6353 48.3335H2.69549C2.1993 48.3335 1.79699 47.9608 1.79699 47.5003V2.50794C1.79699 2.04781 2.1993 1.67474 2.69549 1.67474H38.6353C39.1315 1.67474 39.5338 2.04781 39.5338 2.50794V18.1555C39.5338 18.6156 39.9361 18.9887 40.4323 18.9887C40.9285 18.9887 41.3308 18.6156 41.3308 18.1555V2.50794C41.3308 1.12756 40.1239 0.00836182 38.6353 0.00836182H2.69549C1.20691 0.00836182 0 1.12756 0 2.50794V47.5003C0 48.8811 1.20691 49.9998 2.69549 49.9998H38.6353C40.1239 49.9998 41.3308 48.8811 41.3308 47.5003V39.1684C41.3308 38.7082 40.9285 38.3352 40.4323 38.3352Z" fill="#FFBB01"/>
</svg>
