<svg width="54" height="50" viewBox="0 0 54 50" fill="none" xmlns="http://www.w3.org/2000/svg">
<path d="M53.1012 24.1667H32.5491C32.0528 24.1667 31.6504 24.5398 31.6504 25C31.6504 25.4602 32.0528 25.8334 32.5491 25.8334H52.2026V34.1667H47.7094V28.3334C47.7094 27.8731 47.307 27.5 46.8107 27.5C46.3144 27.5 45.9121 27.8731 45.9121 28.3334V34.1667H21.6486V25.8334H27.0404C27.5367 25.8334 27.9391 25.4602 27.9391 25C27.9391 24.5398 27.5367 24.1667 27.0404 24.1667H20.7499C20.2536 24.1667 19.8513 24.5398 19.8513 25V35C19.8513 35.4602 20.2536 35.8334 20.7499 35.8334H28.8377V37.5H20.7499C20.2536 37.5 19.8513 37.8731 19.8513 38.3334V44.1667H17.1553V43.3334C17.1553 42.8731 16.7529 42.5 16.2567 42.5H13.5607V38.3334C13.5607 37.8731 13.1583 37.5 12.6621 37.5C12.1658 37.5 11.7634 37.8731 11.7634 38.3334V43.3334C11.7634 43.7936 12.1658 44.1667 12.6621 44.1667H15.358V45.8334H6.37153V44.1667H9.06748C9.56375 44.1667 9.96613 43.7936 9.96613 43.3334V38.3334C9.96613 37.8731 9.56375 37.5 9.06748 37.5C8.5712 37.5 8.16883 37.8731 8.16883 38.3334V42.5H5.47288C4.97661 42.5 4.57424 42.8731 4.57424 43.3334V44.1667H0.979642C0.483367 44.1667 0.0809937 44.5398 0.0809937 45C0.0809937 45.4602 0.483367 45.8334 0.979642 45.8334H4.57424V46.6667C4.57424 47.1269 4.97661 47.5 5.47288 47.5H16.2567C16.7529 47.5 17.1553 47.1269 17.1553 46.6667V45.8334H19.8513V48.3334C19.8513 48.7936 20.2536 49.1667 20.7499 49.1667H53.1012C53.5975 49.1667 53.9999 48.7936 53.9999 48.3334V38.3334C53.9999 37.8731 53.5975 37.5 53.1012 37.5H45.0134V35.8334H53.1012C53.5975 35.8334 53.9999 35.4602 53.9999 35V25C53.9999 24.5398 53.5975 24.1667 53.1012 24.1667ZM52.2026 47.5H21.6486V39.1667H45.9121V45C45.9121 45.4602 46.3144 45.8334 46.8107 45.8334C47.307 45.8334 47.7094 45.4602 47.7094 45V39.1667H52.2026V47.5ZM43.2161 37.5H30.635V35.8334H43.2161V37.5Z" fill="#FFBB01"/>
<path d="M27.0403 27.5C25.5515 27.5 24.3444 28.6194 24.3444 30C24.3444 31.381 25.5515 32.5 27.0403 32.5C28.5291 32.5 29.7363 31.381 29.7363 30C29.7363 28.6194 28.5291 27.5 27.0403 27.5ZM27.0403 30.8333C26.544 30.8333 26.1417 30.4602 26.1417 30C26.1417 29.5398 26.544 29.1667 27.0403 29.1667C27.5366 29.1667 27.939 29.5398 27.939 30C27.939 30.4602 27.5366 30.8333 27.0403 30.8333Z" fill="#FFBB01"/>
<path d="M32.4324 32.5C32.9287 32.5 33.3311 32.1269 33.3311 31.6667V28.3333C33.3311 27.8731 32.9287 27.5 32.4324 27.5C31.9361 27.5 31.5338 27.8731 31.5338 28.3333V31.6667C31.5338 32.1269 31.9361 32.5 32.4324 32.5Z" fill="#FFBB01"/>
<path d="M36.9256 31.6667V28.3333C36.9256 27.8731 36.5232 27.5 36.0269 27.5C35.5307 27.5 35.1283 27.8731 35.1283 28.3333V31.6667C35.1283 32.1269 35.5307 32.5 36.0269 32.5C36.5232 32.5 36.9256 32.1269 36.9256 31.6667Z" fill="#FFBB01"/>
<path d="M40.5201 31.6667V28.3333C40.5201 27.8731 40.1177 27.5 39.6214 27.5C39.1252 27.5 38.7228 27.8731 38.7228 28.3333V31.6667C38.7228 32.1269 39.1252 32.5 39.6214 32.5C40.1177 32.5 40.5201 32.1269 40.5201 31.6667Z" fill="#FFBB01"/>
<path d="M44.1146 31.6667V28.3333C44.1146 27.8731 43.7122 27.5 43.2159 27.5C42.7197 27.5 42.3173 27.8731 42.3173 28.3333V31.6667C42.3173 32.1269 42.7197 32.5 43.2159 32.5C43.7122 32.5 44.1146 32.1269 44.1146 31.6667Z" fill="#FFBB01"/>
<path d="M28.8376 42.5C28.3413 42.5 27.939 42.8732 27.939 43.3334C27.939 43.7936 27.5366 44.1667 27.0403 44.1667C26.544 44.1667 26.1417 43.7936 26.1417 43.3334C26.1417 42.8732 26.544 42.5 27.0403 42.5C27.5366 42.5 27.939 42.1269 27.939 41.6667C27.939 41.2065 27.5366 40.8334 27.0403 40.8334C25.5515 40.8334 24.3444 41.9528 24.3444 43.3334C24.3444 44.7144 25.5515 45.8334 27.0403 45.8334C28.5291 45.8334 29.7363 44.7144 29.7363 43.3334C29.7363 42.8732 29.3339 42.5 28.8376 42.5Z" fill="#FFBB01"/>
<path d="M32.4324 40.8334C31.9361 40.8334 31.5338 41.2065 31.5338 41.6667V45C31.5338 45.4602 31.9361 45.8334 32.4324 45.8334C32.9287 45.8334 33.3311 45.4602 33.3311 45V41.6667C33.3311 41.2065 32.9287 40.8334 32.4324 40.8334Z" fill="#FFBB01"/>
<path d="M36.0269 40.8334C35.5307 40.8334 35.1283 41.2065 35.1283 41.6667V45C35.1283 45.4602 35.5307 45.8334 36.0269 45.8334C36.5232 45.8334 36.9256 45.4602 36.9256 45V41.6667C36.9256 41.2065 36.5232 40.8334 36.0269 40.8334Z" fill="#FFBB01"/>
<path d="M39.6214 40.8334C39.1252 40.8334 38.7228 41.2065 38.7228 41.6667V45C38.7228 45.4602 39.1252 45.8334 39.6214 45.8334C40.1177 45.8334 40.5201 45.4602 40.5201 45V41.6667C40.5201 41.2065 40.1177 40.8334 39.6214 40.8334Z" fill="#FFBB01"/>
<path d="M43.2159 40.8334C42.7197 40.8334 42.3173 41.2065 42.3173 41.6667V45C42.3173 45.4602 42.7197 45.8334 43.2159 45.8334C43.7122 45.8334 44.1146 45.4602 44.1146 45V41.6667C44.1146 41.2065 43.7122 40.8334 43.2159 40.8334Z" fill="#FFBB01"/>
<path d="M6.89284 29.8418C7.01175 29.8906 7.14032 29.9159 7.2702 29.9167C7.68662 29.911 8.0438 29.6404 8.13375 29.2636C8.22326 28.8864 8.0223 28.5019 7.64757 28.3334C3.4233 26.5382 1.11745 22.2572 2.1078 18.047C3.09772 13.8368 7.11663 10.8346 11.7634 10.8334C12.6753 10.833 13.5827 10.9506 14.4594 11.1833C14.907 11.3034 15.3787 11.0861 15.5467 10.6837C17.8083 5.24422 23.4498 1.65942 29.7364 1.66675C36.8966 1.6993 43.0836 6.31356 44.6541 12.7918C44.7344 13.1259 45.0266 13.3802 45.3908 13.4335C49.3127 14.0146 52.1996 17.1506 52.2026 20.8334C52.1987 21.0759 52.1807 21.318 52.1487 21.5585C52.1157 21.7823 52.1824 22.0094 52.3329 22.1868C52.4839 22.3642 52.7059 22.4773 52.9486 22.5001C53.1886 22.5233 53.4286 22.4561 53.6142 22.3133C53.8003 22.1709 53.9165 21.965 53.9372 21.742C53.9767 21.4405 53.9977 21.1374 53.9999 20.8334C54.0183 16.5365 50.798 12.811 46.2715 11.8918C44.2982 4.91382 37.5158 0.0358877 29.7364 8.03839e-05C22.986 -0.0198577 16.8644 3.67073 14.1448 9.40031C13.3624 9.24446 12.5638 9.16593 11.7634 9.16675C6.27678 9.17204 1.53342 12.7174 0.362283 17.6881C-0.808417 22.6588 1.90815 27.7153 6.89284 29.8418V29.8418Z" fill="#FFBB01"/>
<path d="M14.4594 30.5087C14.5335 30.5205 14.6099 30.5205 14.684 30.5087C15.7086 30.267 16.6915 29.8938 17.6046 29.4003C17.8113 29.2888 17.9614 29.1057 18.0219 28.8916C18.0825 28.6772 18.0487 28.4497 17.928 28.2585C17.6784 27.8646 17.1334 27.7307 16.706 27.9586C15.932 28.3745 15.1004 28.6914 14.2347 28.9002C13.7384 28.9575 13.3865 29.3775 13.4484 29.8377C13.5102 30.2979 13.9631 30.6242 14.4594 30.5668V30.5087Z" fill="#FFBB01"/>
<path d="M10.8649 35.8334C11.3612 35.8334 11.7636 35.4602 11.7636 35V21.9169L13.7136 24.6253C13.879 24.858 14.1589 24.9988 14.4595 25C14.6363 25.0021 14.8092 24.9524 14.9536 24.8584C15.3639 24.6041 15.4762 24.091 15.2054 23.7085L11.6109 18.7085C11.6109 18.7085 11.6109 18.7085 11.5657 18.6666C11.3954 18.4697 11.1374 18.3549 10.8649 18.3549C10.5924 18.3549 10.3344 18.4697 10.1642 18.6666C10.1642 18.6666 10.1642 18.6666 10.119 18.7085L6.52437 23.7085C6.30497 24.0877 6.4331 24.5593 6.82012 24.797C7.20669 25.0346 7.72491 24.9601 8.01627 24.6253L9.96626 21.9169V35C9.96626 35.4602 10.3686 35.8334 10.8649 35.8334Z" fill="#FFBB01"/>
<path d="M33.825 15.1417C33.413 14.8906 32.8592 14.9948 32.585 15.3752L30.635 18.0836V8.33339C30.635 7.87319 30.2326 7.50006 29.7363 7.50006C29.2401 7.50006 28.8377 7.87319 28.8377 8.33339V18.0836L26.8877 15.3752C26.7262 15.0965 26.409 14.9264 26.068 14.9362C25.7271 14.9459 25.4217 15.1335 25.2791 15.4208C25.1369 15.7081 25.1821 16.0454 25.3958 16.292L28.9904 21.292C29.1576 21.5223 29.4371 21.6602 29.7363 21.6602C30.0356 21.6602 30.3151 21.5223 30.4823 21.292L34.0769 16.292C34.3476 15.9095 34.2353 15.396 33.825 15.1417Z" fill="#FFBB01"/>
</svg>
